# xmcd CD database file
#
# Track frame offsets:
#	150
#	19835
#	43597
#	72830
#	91050
#	114442
#	138535
#	162575
#	184055
#	200605
#	219942
#	239930
#
# Disc length: 3387 seconds
#
# Revision: 0
# Processed by: cddbd v1.5PL3 Copyright (c) Steve Scherf et al.
# Submitted via: CDex 1.51
#
DISCID=ae0d390c
DTITLE=Albert Washington - A Brighter Day
DYEAR=1994
DGENRE=Blues
TTITLE0=A Brighter Day
TTITLE1=I just can't Stay Away from You
TTITLE2=The Day before We were Married
TTITLE3=Rolling Along
TTITLE4=You're Gonna Lose the Best Man You ever Had
TTITLE5=Standing Here All Alone
TTITLE6=He's My Brother
TTITLE7=I Walked a Long Way
TTITLE8=Travelin'
TTITLE9=Don't Drink and Drive
TTITLE10=Keep on Singing the Blues
TTITLE11=Coming Home Tomorrow
EXTD=YEAR: 1994
EXTT0=
EXTT1=
EXTT2=
EXTT3=
EXTT4=
EXTT5=
EXTT6=
EXTT7=
EXTT8=
EXTT9=
EXTT10=
EXTT11=
PLAYORDER=
